PathFileType  4	(X/Y/Z) C:\Users\wagnerel85475\Documents\Thesis\opencap-core\Data\3375ffbc-daeb-4a43-b4f7-ac9899cd4c71\MarkerData\PreAugmentation
DataRate	CameraRate	NumFrames	NumMarkers	Units	OrigDataRate	OrigDataStartFrame	OrigNumFrames
60.0	60.0	11	20	m	60.0	226	300
Frame#	Time	Neck			RShoulder			RElbow			RWrist			LShoulder			LElbow			LWrist			midHip			RHip			RKnee			RAnkle			LHip			LKnee			LAnkle			LBigToe			LSmallToe			LHeel			RBigToe			RSmallToe			RHeel			
		X1	Y1	Z1	X2	Y2	Z2	X3	Y3	Z3	X4	Y4	Z4	X5	Y5	Z5	X6	Y6	Z6	X7	Y7	Z7	X8	Y8	Z8	X9	Y9	Z9	X10	Y10	Z10	X11	Y11	Z11	X12	Y12	Z12	X13	Y13	Z13	X14	Y14	Z14	X15	Y15	Z15	X16	Y16	Z16	X17	Y17	Z17	X18	Y18	Z18	X19	Y19	Z19	X20	Y20	Z20	

226	3.7500000	0.7804100	1.3639100	-0.1845800	0.7933400	1.3693800	0.0037700	0.7189900	1.0647500	0.0816900	0.8339000	0.7748700	0.1352100	0.7849600	1.3573700	-0.3736200	0.7328600	1.0606200	-0.4266500	0.8346600	0.7686300	-0.4549800	0.8274300	0.8217400	-0.1749200	0.8200600	0.8274800	-0.0550900	0.7490800	0.3437100	-0.0319000	0.6862100	-0.1805300	0.0041300	0.8587000	0.8259800	-0.2863700	0.7472900	0.3516800	-0.2762100	0.6869400	-0.1781300	-0.3159400	0.9019100	-0.2280800	-0.3452100	0.8373800	-0.2274200	-0.3874800	0.6490100	-0.2243000	-0.3083500	0.8919700	-0.2355400	0.0465900	0.8364300	-0.2280000	0.0860900	0.6271200	-0.2308000	-0.0163800
227	3.7666667	0.7802300	1.3639200	-0.1844800	0.7932300	1.3693900	0.0038700	0.7189000	1.0645200	0.0816200	0.8340500	0.7748200	0.1351300	0.7854500	1.3573400	-0.3738500	0.7330300	1.0608000	-0.4267800	0.8353600	0.7688700	-0.4553700	0.8275600	0.8217500	-0.1749300	0.8202000	0.8273900	-0.0551200	0.7487000	0.3433200	-0.0320000	0.6863900	-0.1773600	0.0035500	0.8591600	0.8258300	-0.2863900	0.7474200	0.3512100	-0.2761500	0.6869300	-0.1780400	-0.3159300	0.9023000	-0.2280100	-0.3450400	0.8372600	-0.2274700	-0.3876000	0.6494800	-0.2244600	-0.3082800	0.8917800	-0.2356800	0.0466400	0.8358300	-0.2283400	0.0860600	0.6271000	-0.2308300	-0.0163700
228	3.7833333	0.7804300	1.3639200	-0.1845700	0.7933600	1.3694100	0.0038100	0.7189800	1.0647500	0.0817000	0.8339100	0.7748300	0.1352000	0.7850400	1.3573400	-0.3736400	0.7330200	1.0606100	-0.4267400	0.8346600	0.7687200	-0.4549800	0.8274900	0.8216000	-0.1749400	0.8200800	0.8274100	-0.0551200	0.7490900	0.3437400	-0.0319300	0.6863900	-0.1771100	0.0034900	0.8586800	0.8222300	-0.2865200	0.7472800	0.3514800	-0.2762300	0.6869200	-0.1781600	-0.3159500	0.9019500	-0.2280800	-0.3452000	0.8374000	-0.2274100	-0.3874700	0.6489600	-0.2243300	-0.3083800	0.8919200	-0.2355200	0.0465600	0.8276300	-0.2311900	0.0831400	0.6271300	-0.2307700	-0.0163700
229	3.8000000	0.7801700	1.3638800	-0.1845100	0.7932300	1.3693700	0.0038800	0.7189700	1.0644400	0.0816500	0.8341300	0.7709300	0.1348900	0.7854700	1.3572900	-0.3738800	0.7332200	1.0607600	-0.4268500	0.8354300	0.7687100	-0.4553800	0.8275300	0.8216800	-0.1749400	0.8202500	0.8273400	-0.0551100	0.7487300	0.3434100	-0.0320100	0.6863200	-0.1773500	0.0035200	0.8508900	0.8211800	-0.2903500	0.7472900	0.3511000	-0.2762200	0.6869500	-0.1780200	-0.3159200	0.9024500	-0.2279500	-0.3449700	0.8374700	-0.2273900	-0.3875000	0.6492200	-0.2204700	-0.3089500	0.8918200	-0.2357100	0.0466300	0.8270600	-0.2315400	0.0831400	0.6270400	-0.2308700	-0.0163900
230	3.8166667	0.7803400	1.3638800	-0.1846000	0.7933600	1.3693800	0.0038200	0.7191300	1.0646700	0.0816900	0.8340100	0.7709400	0.1349400	0.7850100	1.3572600	-0.3736600	0.7243900	1.0600200	-0.4233000	0.8433000	0.7696700	-0.4584500	0.8273400	0.8216700	-0.1748900	0.8200500	0.8274200	-0.0550600	0.7490300	0.3438200	-0.0318500	0.6863500	-0.1771200	0.0034700	0.8585600	0.8222600	-0.2864900	0.7472100	0.3514300	-0.2762600	0.6869700	-0.1781500	-0.3159200	0.9021200	-0.2280400	-0.3451700	0.8376000	-0.2273500	-0.3874200	0.6490700	-0.2242700	-0.3083500	0.8919900	-0.2355600	0.0465700	0.8276300	-0.2312200	0.0831400	0.6271000	-0.2307900	-0.0164100
231	3.8333333	0.7802200	1.3638600	-0.1845100	0.8021900	1.3692000	0.0071700	0.7190100	1.0644600	0.0816500	0.8341700	0.7709600	0.1348500	0.7854600	1.3572600	-0.3738900	0.7332000	1.0607200	-0.4268600	0.8439900	0.7698200	-0.4588300	0.8275500	0.8217400	-0.1748900	0.8202400	0.8273800	-0.0550800	0.7487000	0.3434000	-0.0319600	0.6867300	-0.1738400	0.0028800	0.8589900	0.8222000	-0.2865200	0.7472500	0.3510800	-0.2762100	0.6869700	-0.1780300	-0.3159100	0.9025100	-0.2279700	-0.3450100	0.8374600	-0.2274300	-0.3875400	0.6495200	-0.2244000	-0.3082500	0.8918100	-0.2357100	0.0466300	0.8270300	-0.2315300	0.0831500	0.6273700	-0.2282700	-0.0170300
232	3.8500000	0.7804300	1.3638600	-0.1846100	0.7934100	1.3693900	0.0038200	0.7191700	1.0647000	0.0817000	0.8338800	0.7747500	0.1351500	0.7850700	1.3572600	-0.3736800	0.7330500	1.0605300	-0.4267400	0.8432800	0.7696500	-0.4584300	0.8360800	0.8226000	-0.1712000	0.8287300	0.8283600	-0.0517200	0.7490500	0.3437500	-0.0318700	0.6867700	-0.1736600	0.0028200	0.8586500	0.8222900	-0.2864800	0.7471400	0.3514500	-0.2762800	0.6869500	-0.1781700	-0.3159400	0.9021300	-0.2280300	-0.3451700	0.8376100	-0.2273700	-0.3874200	0.6490300	-0.2242900	-0.3083700	0.8919800	-0.2355600	0.0465700	0.8276100	-0.2312100	0.0831400	0.6274100	-0.2282500	-0.0170500
233	3.8666667	0.7802700	1.3638300	-0.1845200	0.7932900	1.3693500	0.0038900	0.7191100	1.0644800	0.0816800	0.8341700	0.7709700	0.1348700	0.7855200	1.3571800	-0.3738900	0.7332400	1.0572400	-0.4267600	0.8354600	0.7686800	-0.4553700	0.8362700	0.8227500	-0.1711800	0.8289100	0.8283600	-0.0517300	0.7487700	0.3434300	-0.0319500	0.6867500	-0.1738700	0.0028800	0.8591600	0.8259700	-0.2863600	0.7472800	0.3508600	-0.2762200	0.6870700	-0.1743300	-0.3153300	0.9024500	-0.2279800	-0.3450600	0.8370200	-0.2241400	-0.3869800	0.6493200	-0.2203300	-0.3088700	0.8917700	-0.2357100	0.0466200	0.8270100	-0.2315600	0.0831400	0.6273700	-0.2282700	-0.0170300
234	3.8833333	0.7804000	1.3638600	-0.1846000	0.7934100	1.3693400	0.0038400	0.7192300	1.0647100	0.0817200	0.8340700	0.7708900	0.1349400	0.7851000	1.3572000	-0.3736600	0.7331600	1.0570600	-0.4266300	0.8433100	0.7696600	-0.4584400	0.8361600	0.8225000	-0.1711700	0.8288000	0.8282800	-0.0516900	0.7490400	0.3437100	-0.0318700	0.6868300	-0.1735900	0.0028200	0.8587000	0.8223000	-0.2864300	0.7471900	0.3514300	-0.2762700	0.6870700	-0.1744500	-0.3153400	0.9019700	-0.2280700	-0.3452000	0.8373800	-0.2273700	-0.3874900	0.6489000	-0.2201500	-0.3089800	0.8920000	-0.2355600	0.0465600	0.8276300	-0.2312100	0.0831200	0.6274300	-0.2282100	-0.0170500
235	3.9000000	0.7802500	1.3638500	-0.1845200	0.8021800	1.3691700	0.0071800	0.7191200	1.0645100	0.0816900	0.8341100	0.7708900	0.1349000	0.7854800	1.3572200	-0.3738600	0.7332800	1.0572600	-0.4267600	0.8362000	0.7650500	-0.4555900	0.8363300	0.8226200	-0.1711600	0.8290000	0.8282700	-0.0517100	0.7487400	0.3433800	-0.0319600	0.6868000	-0.1738500	0.0028700	0.8590600	0.8222100	-0.2864900	0.7473400	0.3510200	-0.2762000	0.6869600	-0.1779700	-0.3159000	0.9023700	-0.2279900	-0.3450200	0.8373100	-0.2274200	-0.3875600	0.6492900	-0.2203700	-0.3089000	0.8918500	-0.2357100	0.0466300	0.8270600	-0.2315300	0.0831500	0.6274000	-0.2282500	-0.0170400
236	3.9166667	0.7803800	1.3638600	-0.1846000	0.8023400	1.3691800	0.0071300	0.7192300	1.0647000	0.0817200	0.8340500	0.7708600	0.1349500	0.7850500	1.3572000	-0.3736800	0.7331500	1.0605400	-0.4266900	0.8433100	0.7697200	-0.4584400	0.8362300	0.8225600	-0.1711900	0.8289000	0.8283400	-0.0517000	0.7490600	0.3437400	-0.0318500	0.6868500	-0.1736300	0.0028200	0.8587200	0.8223100	-0.2864600	0.7472500	0.3514600	-0.2762500	0.6869600	-0.1781100	-0.3159100	0.9019900	-0.2280600	-0.3451800	0.8374500	-0.2273900	-0.3874600	0.6488800	-0.2202300	-0.3090100	0.8919800	-0.2355600	0.0465700	0.8276100	-0.2312400	0.0831100	0.6274500	-0.2282100	-0.0170500
